<svg id="Layer_1" data-name="Layer 1" xmlns="http://www.w3.org/2000/svg" viewBox="0 0 128 128"><title>Artboard 2</title><path d="M97.326,81.737a6.559,6.559,0,0,0,1.739-4.456h-.008l.021-8.35,6.48-3.613.05-.024c.038-.017.076-.036.114-.055l.083-.044a2.077,2.077,0,0,0,.241-.134,6.59,6.59,0,0,0,2.4-8.842c-.031-.06-.064-.12-.1-.179l-4.127-7.191,3.867-6.471.061-.1h0l.025-.041.018-.031c.021-.031.04-.064.059-.1a6.583,6.583,0,0,0-2.4-9h0l-7.237-4.2.114-7.593a2.158,2.158,0,0,0,.011-.219v-.053A6.562,6.562,0,0,0,96.811,16.4l0,0a6.565,6.565,0,0,0-4.649-1.933v.008l-8.351-.021L80.2,7.982c-.023-.055-.048-.11-.076-.164S80.05,7.682,80,7.6L80,7.587a6.59,6.59,0,0,0-8.984-2.456L71,5.138,63.726,9.313,57.338,5.5l-.071-.047-.1-.064,0,0-.047-.029-.026-.016c-.033-.021-.066-.042-.1-.062a6.584,6.584,0,0,0-9,2.4l-4.2,7.237L36.2,14.8a2.169,2.169,0,0,0-.219-.011h-.053a6.549,6.549,0,0,0-4.517,1.8c-.047.039-.093.081-.137.125a6.561,6.561,0,0,0-1.928,4.653h.008l-.021,8.35-6.48,3.613-.052.025c-.037.017-.075.035-.111.054l-.15.079,0,0-.005,0-.044.024h0l-.005,0h0l-.013.007a6.589,6.589,0,0,0-2.456,8.984l.007.013,4.175,7.273-3.817,6.388-.047.071-.064.1,0,0-.029.047-.014.024c-.022.034-.043.068-.064.1a6.585,6.585,0,0,0,2.4,9l7.237,4.2-.114,7.593a2.063,2.063,0,0,0-.011.219v.053A6.552,6.552,0,0,0,30.8,81.29L14.741,109.1a2.092,2.092,0,0,0,2.559,3.031l14.332-5.684L33.876,121.7h0a2.1,2.1,0,0,0,3.887.747l16.2-28.064a6.565,6.565,0,0,0,3.345-.816c.06-.03.12-.064.179-.1l7.191-4.127,6.567,3.927h0a6.534,6.534,0,0,0,2.536.925l16.4,28.4a2.1,2.1,0,0,0,3.943-.654l2.243-15.257,14.332,5.684h0a2.093,2.093,0,0,0,2.584-2.986Zm-60.175,33.4L35.4,103.222a2.1,2.1,0,0,0-3-1.581l-11.053,4.384L34.153,83.843a6.522,6.522,0,0,0,1.626.328l.033,0,.034,0,.033,0,.034,0h0l.033,0,.033,0h.271V84.18l8.35.021c4.747,8.538,3.266,5.806,3.738,6.73h0a6.725,6.725,0,0,0,1.64,1.982ZM76.729,88.97l-.147.205a2.34,2.34,0,0,1-.594.526,2.411,2.411,0,0,1-.9.337h0c-.066.01-.132.018-.2.022h0c-1.179.085-1.012-.2-9.113-4.945a2.094,2.094,0,0,0-2.115-.02l0,0-8.332,4.782-.006,0A2.394,2.394,0,0,1,53.5,90.1a2.358,2.358,0,0,1-1.434-1.093h0L52.063,89l-.007-.013h0c-.228-.427-.175-.33-.2-.369l0,0,0,0-4.189-7.514a2.093,2.093,0,0,0-1.905-1.075L36.251,80v-.008H36.1a2.382,2.382,0,0,1-1.054-.318l-.005,0-.006,0-.011-.007-.007,0,0,0L35,79.637l-.01-.006h0a2.431,2.431,0,0,1-.272-.2h0q-.077-.064-.146-.134l0,0,0,0a2.375,2.375,0,0,1-.7-1.684c0-.054,0-.109-.006-.162L34,68.568a2.092,2.092,0,0,0-1.044-1.836l0,0-8.3-4.818a2.393,2.393,0,0,1-.872-3.27l.017-.031,0,0,.064-.1c.036-.056.068-.114.1-.173L28.416,50.9a2.093,2.093,0,0,0,.021-2.114l0,0-4.73-8.242c-.027-.053-.056-.1-.086-.153a2.4,2.4,0,0,1,.858-3.169c.055-.029.108-.06.16-.093l.066-.037,0,0c.044-.021.088-.043.13-.067h0l7.6-4.234a2.093,2.093,0,0,0,1.075-1.905l.024-9.507h.008a2.374,2.374,0,0,1,.7-1.684c.026-.025.05-.051.075-.078a2.385,2.385,0,0,1,1.61-.619c.054,0,.109,0,.162-.006l8.875.133A2.092,2.092,0,0,0,46.8,18.077h0l4.818-8.3a2.393,2.393,0,0,1,3.27-.871l.03.017,0,0,.1.064c.057.036.114.068.173.1l7.443,4.447a2.094,2.094,0,0,0,2.114.021l0,0,8.242-4.731c.052-.027.1-.055.153-.086a2.4,2.4,0,0,1,3.169.859c.02.039.042.078.065.116l.018.034.044.08,0,.007a2.1,2.1,0,0,0,.111.2l4.189,7.515a2.093,2.093,0,0,0,1.905,1.075l9.507.024v.008a2.37,2.37,0,0,1,1.684.689l0,0,0,0a2.376,2.376,0,0,1,.7,1.684c0,.055,0,.109.006.162l-.133,8.875a2.093,2.093,0,0,0,1.043,1.836l0,0,8.3,4.819h0a2.393,2.393,0,0,1,.87,3.268l-.028.049-.057.089-.044.073-4.5,7.534a2.1,2.1,0,0,0-.021,2.115l0,0,4.782,8.332,0,.006a2.4,2.4,0,0,1-.894,3.263l-.014.009-.078.045-.067.037,0,0c-.044.021-.088.043-.131.067h0l-7.595,4.234A2.093,2.093,0,0,0,94.9,67.774l-.024,9.507h-.008a2.373,2.373,0,0,1-.7,1.684,2.489,2.489,0,0,1-1.892.7h0l-8.7-.131a2.1,2.1,0,0,0-1.966,1.04Zm18.72,12.847a2.094,2.094,0,0,0-2.842,1.641H92.6l-1.751,11.911L78.118,93.315l.086-.053a6.567,6.567,0,0,0,1.692-1.52l0,0c.217-.278,5.033-8.541,4.719-8,2.244.036,4.9.077,8.219.115h.037a6.53,6.53,0,0,0,.789-.094l12.993,22.5Z"/><path d="M92.668,49.327a28.465,28.465,0,1,0-8.337,20.126A28.373,28.373,0,0,0,92.668,49.327ZM64.2,73.589a24.26,24.26,0,1,1,17.157-7.106A24.187,24.187,0,0,1,64.2,73.589Z"/><path d="M79.795,42.7l0,0,0,0a4.194,4.194,0,0,0-2.971-1.234v.008l-6.583.013-1.981-6.139-.025-.085a4.243,4.243,0,0,0-1.036-1.713,4.185,4.185,0,0,0-1.471-.958,2.092,2.092,0,0,0-.458-.147A4.206,4.206,0,0,0,60.281,35a2.092,2.092,0,0,0-.132.389l-1.967,6.094L51.9,41.475h0a4.218,4.218,0,0,0-2.775,7.619l5.327,3.854L52.408,59.2h0c-.022.067-.04.134-.055.2a4.2,4.2,0,0,0,6.533,4.5l5.319-3.88,5.071,3.7a4.234,4.234,0,0,0,1.911.922,4.191,4.191,0,0,0,2.1-.128l.009,0a4.208,4.208,0,0,0,2.707-5.3l0-.01-2.045-6.252L79.2,49.157l.022-.014a2.084,2.084,0,0,0,.273-.217A4.225,4.225,0,0,0,80.57,47.59l-.007,0a4.184,4.184,0,0,0-.768-4.886Zm-2.96,2.99-.007,0,0,.005c-.04.029-.079.06-.116.091l-6.445,4.663a2.1,2.1,0,0,0-.738,2.424l2.452,7.5c.012.047.026.094.041.14l0,.005,0,0L72,60.52h0l-.012-.006a2.083,2.083,0,0,0-.239-.175l-6.3-4.6a2.092,2.092,0,0,0-2.491.022l-6.52,4.756a.034.034,0,0,1-.021,0l-.009-.006v-.007l0-.018q.016-.051.03-.1l2.484-7.593a2.1,2.1,0,0,0-.764-2.346h0L51.587,45.7l-.012-.011a.031.031,0,0,1,.007-.018s0,0,0,0a.063.063,0,0,1,.024,0,2.138,2.138,0,0,0,.292,0l7.808.015A2.093,2.093,0,0,0,61.7,44.222h0l2.488-7.709h0A.027.027,0,0,1,64.2,36.5a.022.022,0,0,1,.013,0h0l.008,0,0,.006c.013.042.027.082.043.122l2.45,7.59A2.094,2.094,0,0,0,68.8,45.674l8.013-.015v.008h.011l0,0,0,.009c0,.016.014,0,.008.007Z"/></svg>