<svg id="Layer_1" data-name="Layer 1" xmlns="http://www.w3.org/2000/svg" viewBox="0 0 128 128"><title>Artboard 1</title><path d="M64,18.095h0a28.463,28.463,0,0,0,0,56.926h0a28.463,28.463,0,0,0,0-56.926ZM81.156,63.714A24.187,24.187,0,0,1,64,70.82h0A24.262,24.262,0,0,1,64,22.3h0A24.263,24.263,0,0,1,81.156,63.714Z"/><path d="M78.379,39.086A4.216,4.216,0,0,0,76.3,38.7h0l-6.277.012-1.967-6.094a2.076,2.076,0,0,0-.132-.389A4.151,4.151,0,0,0,64,29.555h0a4.15,4.15,0,0,0-3.92,2.679,2.076,2.076,0,0,0-.132.389l-1.967,6.094L51.7,38.706h0a4.218,4.218,0,0,0-2.775,7.619l5.327,3.854-2.025,6.19a2.141,2.141,0,0,0-.091.341,4.2,4.2,0,0,0,6.552,4.421L64,57.252l5.315,3.877a4.2,4.2,0,0,0,6.552-4.421,2.141,2.141,0,0,0-.091-.341l-2.025-6.19,5.327-3.854a4.214,4.214,0,0,0-.7-7.237Zm-1.762,3.84-6.564,4.75h0a2.1,2.1,0,0,0-.764,2.346l2.483,7.589c.009.036.02.071.031.107l0,.018v.007l-.009.006a.032.032,0,0,1-.021,0l-6.52-4.756A2.088,2.088,0,0,0,64,52.577H64v0a2.088,2.088,0,0,0-1.253.416l-6.52,4.756a.032.032,0,0,1-.021,0l-.009-.006v-.007l0-.018c.011-.036.022-.071.031-.107l2.483-7.589a2.1,2.1,0,0,0-.764-2.346h0l-6.564-4.75-.012-.011a.03.03,0,0,1,.007-.018s0,0,0,0a.062.062,0,0,1,.024,0,2.138,2.138,0,0,0,.292,0l7.808.015a2.093,2.093,0,0,0,1.992-1.452h0l2.489-7.709h0A.027.027,0,0,1,64,33.732H64a.027.027,0,0,1,.013.011h0l2.489,7.709h0A2.093,2.093,0,0,0,68.5,42.9l7.808-.015a2.138,2.138,0,0,0,.292,0,.062.062,0,0,1,.024,0s0,0,0,0a.03.03,0,0,1,.007.018Z"/><path d="M107.941,53.6h0l-3.928-6.567,4.175-7.273a6.59,6.59,0,0,0-2.449-9c-.031-.018-.114-.062-.223-.119-.037-.019-.074-.037-.111-.054l-.052-.025-6.48-3.613-.021-8.35h.008a6.56,6.56,0,0,0-1.928-4.653c-.044-.044-.09-.086-.137-.125a6.548,6.548,0,0,0-4.517-1.8h-.053a2.168,2.168,0,0,0-.219.011l-7.593.114-4.2-7.237a6.584,6.584,0,0,0-9-2.4c-.034.02-.068.04-.1.062l-.026.016-.047.029,0,0-.1.064-.071.047L64.478,6.543,64,6.783v0l0,0,0,0v.005l-.474-.24L57.134,2.728l-.071-.047-.1-.064,0,0-.047-.029-.026-.016c-.033-.022-.066-.042-.1-.062a6.584,6.584,0,0,0-9,2.4l-4.2,7.237-7.593-.114a2.168,2.168,0,0,0-.219-.011h-.053a6.548,6.548,0,0,0-4.517,1.8c-.047.039-.093.081-.137.125a6.56,6.56,0,0,0-1.928,4.653h.008l-.021,8.35-6.48,3.613-.052.025c-.037.017-.075.035-.111.054-.109.057-.192.1-.223.119a6.59,6.59,0,0,0-2.449,9l4.175,7.273-3.867,6.471-.06.1h0l-.025.041-.014.024c-.022.034-.043.068-.064.1a6.585,6.585,0,0,0,2.4,9l7.237,4.2-.114,7.593a2.05,2.05,0,0,0-.011.219v.053a6.562,6.562,0,0,0,1.928,4.654l0,0a6.564,6.564,0,0,0,4.65,1.933v-.008l8.35.021,3.61,6.476.022.042c.017.036.034.073.052.109l.049.1a2.066,2.066,0,0,0,.133.239,6.569,6.569,0,0,0,2.195,2.238v33.78h0a2.091,2.091,0,0,0,3.732,1.3l9.573-12.094.235-.27.236.269,9.573,12.094a2.091,2.091,0,0,0,3.732-1.3h0V90.63a6.569,6.569,0,0,0,2.195-2.238c.065-.1,3.923-7.063,3.866-6.961l8.35-.021v.008a6.564,6.564,0,0,0,4.65-1.933l0,0a6.905,6.905,0,0,0,1.928-4.68c0,.156-.123-7.677-.125-7.839l7.237-4.2a6.585,6.585,0,0,0,2.4-9ZM73.357,118.4c-7.966-10.039-7.485-9.526-7.825-9.795a2.558,2.558,0,0,0-3.063,0,2.093,2.093,0,0,0-.367.373L54.643,118.4V91.582a6.566,6.566,0,0,0,2.257-.67l.038-.02.077-.04.018-.01.02-.011.038-.021.015-.008q.092-.046.18-.1L64,86.847,70.713,90.7q.088.056.18.1l.015.008.038.021.02.011.018.01.077.04.038.02a6.566,6.566,0,0,0,2.257.67Zm31.3-60.7a2.378,2.378,0,0,1-1.111,1.448l-8.3,4.818,0,0A2.092,2.092,0,0,0,94.206,65.8c.034,2.409.127,8.07.127,9.038a2.375,2.375,0,0,1-.7,1.684l0,0,0,0a2.369,2.369,0,0,1-1.684.689v.008l-9.507.024a2.093,2.093,0,0,0-1.905,1.075c-.46.825,1.467-2.637-4.39,7.886l0,0a2.4,2.4,0,0,1-3.14.958l-.015-.007h0l-.012-.007-.014-.007h0l-.027-.014h0l-.014-.008-.011-.006,0,0-.014-.008-.01-.005,0,0-8.332-4.782A2.085,2.085,0,0,0,64,82.108v0h0l0,0v0a2.085,2.085,0,0,0-.543.214L55.121,87.1l0,0-.01.005-.014.008,0,0-.011.006-.014.008h0l-.027.014h0l-.014.007-.012.007h0l-.015.007a2.4,2.4,0,0,1-3.14-.958l0,0-.015-.026v0l-.008-.014,0-.005-.006-.01v0l0-.005h0l0-.007-.026-.048-.022-.047a2.011,2.011,0,0,0-.11-.2l-4.189-7.515a2.093,2.093,0,0,0-1.905-1.075l-9.507-.024v-.008a2.369,2.369,0,0,1-1.684-.689l0,0,0,0a2.375,2.375,0,0,1-.7-1.684c0-.055,0-.109-.006-.162l.134-8.875a2.092,2.092,0,0,0-1.044-1.836l0,0-8.3-4.818a2.393,2.393,0,0,1-.872-3.27l.023-.041.061-.1.044-.072,4.5-7.534a2.094,2.094,0,0,0,.021-2.115l0,0L23.453,37.68a2.4,2.4,0,0,1,.89-3.27l.092-.053.067-.037,0,0c.045-.021.088-.043.131-.067h0l7.595-4.234a2.093,2.093,0,0,0,1.075-1.905l.024-9.507h.008a2.374,2.374,0,0,1,.7-1.684c.026-.025.05-.052.075-.078a2.385,2.385,0,0,1,1.61-.619c.054,0,.109,0,.162-.006l8.875.133a2.092,2.092,0,0,0,1.836-1.043h0l4.818-8.3a2.393,2.393,0,0,1,3.27-.871l.03.017,0,0,.1.064c.056.036.114.068.173.1L62.43,10.77a2.6,2.6,0,0,0,3.139,0l7.443-4.447c.058-.03.116-.063.173-.1l.1-.064,0,0,.03-.017a2.393,2.393,0,0,1,3.27.871l4.818,8.3h0a2.092,2.092,0,0,0,1.836,1.043l8.875-.133c.054,0,.108.006.162.006a2.385,2.385,0,0,1,1.61.619c.024.027.049.053.075.078a2.374,2.374,0,0,1,.7,1.684h.008l.024,9.507a2.093,2.093,0,0,0,1.075,1.905l7.595,4.234h0c.042.024.086.046.131.067l0,0,.067.037.092.053a2.4,2.4,0,0,1,.89,3.27l-4.782,8.332,0,0a2.094,2.094,0,0,0,.021,2.115l4.545,7.607A2.393,2.393,0,0,1,104.657,57.694Z"/></svg>