<?xml version="1.0" encoding="utf-8"?>
<!-- Generator: Adobe Illustrator 24.3.0, SVG Export Plug-In . SVG Version: 6.00 Build 0)  -->
<svg version="1.1" id="Layer_1" xmlns="http://www.w3.org/2000/svg" xmlns:xlink="http://www.w3.org/1999/xlink" x="0px" y="0px"
	 viewBox="0 0 300 300" enable-background="new 0 0 300 300" xml:space="preserve">
<g>
	<path d="M122.921,175.563c0-2.859-2.318-5.178-5.178-5.178h-11.285c-2.859,0-5.177,2.318-5.177,5.178
		c0,2.859,2.318,5.177,5.177,5.177h6.107v6.107c0,2.86,2.318,5.178,5.178,5.178c2.86,0,5.178-2.317,5.178-5.178V175.563z"/>
	<path d="M95.438,175.563c0-2.859-2.318-5.178-5.178-5.178H78.975c-2.859,0-5.177,2.318-5.177,5.178
		c0,2.859,2.318,5.177,5.177,5.177h6.108v6.107c0,2.86,2.317,5.178,5.177,5.178c2.859,0,5.178-2.317,5.178-5.178V175.563z"/>
	<path d="M117.743,220.632c2.86,0,5.178-2.318,5.178-5.177V204.17c0-2.859-2.318-5.177-5.178-5.177h-11.285
		c-2.859,0-5.177,2.318-5.177,5.177c0,2.859,2.318,5.177,5.177,5.177h6.107v6.107C112.565,218.314,114.884,220.632,117.743,220.632z
		"/>
	<path d="M90.26,220.632c2.859,0,5.178-2.318,5.178-5.177V204.17c0-2.859-2.318-5.177-5.178-5.177H78.975
		c-2.859,0-5.177,2.318-5.177,5.177c0,2.859,2.318,5.177,5.177,5.177h6.108v6.107C85.083,218.314,87.4,220.632,90.26,220.632z"/>
	<path d="M193.541,170.386h-11.284c-2.86,0-5.178,2.318-5.178,5.178v11.284c0,2.86,2.317,5.178,5.178,5.178
		c2.859,0,5.178-2.317,5.178-5.178v-6.107h6.106c2.86,0,5.178-2.317,5.178-5.177C198.719,172.704,196.401,170.386,193.541,170.386z"
		/>
	<path d="M221.024,170.386H209.74c-2.859,0-5.177,2.318-5.177,5.178v11.284c0,2.86,2.318,5.178,5.177,5.178
		c2.861,0,5.178-2.317,5.178-5.178v-6.107h6.106c2.86,0,5.177-2.317,5.177-5.177C226.202,172.704,223.884,170.386,221.024,170.386z"
		/>
	<path d="M193.541,198.993h-11.284c-2.86,0-5.178,2.318-5.178,5.177v11.284c0,2.859,2.317,5.177,5.178,5.177
		c2.859,0,5.178-2.318,5.178-5.177v-6.107h6.106c2.86,0,5.178-2.318,5.178-5.177C198.719,201.311,196.401,198.993,193.541,198.993z"
		/>
	<path d="M221.024,198.993H209.74c-2.859,0-5.177,2.318-5.177,5.177v11.284c0,2.859,2.318,5.177,5.177,5.177
		c2.861,0,5.178-2.318,5.178-5.177v-6.107h6.106c2.86,0,5.177-2.318,5.177-5.177C226.202,201.311,223.884,198.993,221.024,198.993z"
		/>
	<path d="M127.413,148.709c0,12.454,10.133,22.586,22.587,22.586s22.587-10.132,22.587-22.586S162.454,126.123,150,126.123
		S127.413,136.255,127.413,148.709z M162.231,148.709c0,6.744-5.487,12.231-12.231,12.231c-6.745,0-12.231-5.487-12.231-12.231
		c0-6.745,5.487-12.232,12.231-12.232C156.744,136.477,162.231,141.965,162.231,148.709z"/>
	<path d="M239.417,160.94c-2.859,0-5.178,2.318-5.178,5.178v0.86c0,2.859,2.318,5.177,5.178,5.177c2.859,0,5.177-2.318,5.177-5.177
		v-0.86C244.594,163.258,242.276,160.94,239.417,160.94z"/>
	<path d="M239.417,177.547c-2.859,0-5.178,2.319-5.178,5.178v54.406h-65.195v-19.701c0-10.501-8.544-19.043-19.044-19.043
		c-10.501,0-19.043,8.542-19.043,19.043v19.701H65.761v-86.312l27.746-28.386h20.359l-18.289,21.1h-10.96
		c-2.86,0-5.178,2.317-5.178,5.177c0,2.859,2.318,5.178,5.178,5.178h13.324c1.501,0,2.928-0.652,3.913-1.787L150,96.558
		l48.148,55.543c1.022,1.182,2.461,1.786,3.911,1.787l0,0h37.358c2.083,0,3.964-1.25,4.771-3.17c0.808-1.92,0.387-4.138-1.069-5.628
		l-30.744-31.454c-0.975-0.997-2.309-1.559-3.704-1.559h-31.515l-21.981-25.355V82.7c0.549,0.073,1.087,0.106,1.618,0.106
		c3.09,0,5.861-1.117,8.206-2.061c3.47-1.398,6.466-2.605,11.011-1.525c1.541,0.366,3.166,0.008,4.408-0.974
		c1.242-0.982,1.967-2.479,1.967-4.062V59.872c0-1.383-0.554-2.709-1.537-3.681c-2.646-2.62-5.789-3.85-9.337-3.658
		c-2.665,0.143-5.123,1.06-7.498,1.946c-3.993,1.491-7.441,2.776-11.797,0.714c0,0.001-0.001,0.003-0.001,0.004
		c-0.674-0.319-1.422-0.502-2.215-0.502c-2.859,0-5.178,2.318-5.178,5.177v26.85l-21.98,25.355H91.327
		c-1.395,0-2.729,0.562-3.703,1.559L56.881,145.09c-0.946,0.968-1.475,2.267-1.475,3.62v93.599c0,2.86,2.317,5.178,5.177,5.178
		h75.552c2.859,0,5.177-2.318,5.177-5.178v-24.877c0-4.791,3.897-8.688,8.688-8.688c4.79,0,8.688,3.898,8.688,8.688v24.877
		c0,2.86,2.319,5.178,5.178,5.178h75.551c2.859,0,5.177-2.318,5.177-5.178v-59.583C244.594,179.866,242.276,177.547,239.417,177.547
		z M206.493,122.433l20.623,21.1h-22.693l-18.289-21.1H206.493z M167.633,64.181c2.348-0.875,3.605-1.258,4.397-1.3v5.578
		c-4.537,0.12-8.084,1.547-10.899,2.682c-3.291,1.326-4.425,1.781-5.955,0.724v-5.308C160.223,66.945,164.48,65.358,167.633,64.181z
		"/>
</g>
</svg>
